<svg width="32" height="32" viewBox="0 0 32 32" fill="none" xmlns="http://www.w3.org/2000/svg">
<path d="M13.7364 7.89844C9.95355 7.89844 6.87926 10.9727 6.87926 14.7556V18.0584C6.87926 18.7556 6.58212 19.8184 6.22783 20.4127L4.91355 22.5956C4.10212 23.9442 4.66212 25.4413 6.14784 25.9442C11.0735 27.5899 16.3878 27.5899 21.3135 25.9442C22.6964 25.487 23.3021 23.8527 22.5478 22.5956L21.2335 20.4127C20.8907 19.8184 20.5935 18.7556 20.5935 18.0584V14.7556C20.5935 10.9842 17.5078 7.89844 13.7364 7.89844Z" fill="#7A6FFF" stroke="#7A6FFF" stroke-width="1.5" stroke-miterlimit="10" stroke-linecap="round"/>
<path d="M15.8516 8.22906C15.4973 8.12621 15.1316 8.04621 14.7545 8.00049C13.6573 7.86335 12.6059 7.94335 11.623 8.22906C11.9545 7.38335 12.7773 6.78906 13.7373 6.78906C14.6973 6.78906 15.5202 7.38335 15.8516 8.22906Z" stroke="#7A6FFF" stroke-width="1.5" stroke-miterlimit="10" stroke-linecap="round" stroke-linejoin="round"/>
<path d="M17.1657 26.3555C17.1657 28.2412 15.6229 29.784 13.7372 29.784C12.8 29.784 11.9314 29.3955 11.3143 28.7783C10.6972 28.1612 10.3086 27.2926 10.3086 26.3555" fill="#7A6FFF"/>
<path d="M17.1657 26.3555C17.1657 28.2412 15.6229 29.784 13.7372 29.784C12.8 29.784 11.9314 29.3955 11.3143 28.7783C10.6972 28.1612 10.3086 27.2926 10.3086 26.3555" stroke="#7A6FFF" stroke-width="1.5" stroke-miterlimit="10"/>
<g clip-path="url(#clip0_4954_22111)">
<rect x="16" width="14.8571" height="16" rx="7.42857" fill="#7A6FFF"/>
<path d="M24.002 9.55078H22.8418L22.7363 3.51562H24.1074L24.002 9.55078ZM23.4277 12.082C23.2793 12.082 23.1387 12.0449 23.0059 11.9707C22.877 11.8965 22.7754 11.7949 22.7012 11.666C22.627 11.5371 22.5918 11.3984 22.5957 11.25C22.5918 11.1016 22.627 10.9629 22.7012 10.834C22.7754 10.7051 22.877 10.6035 23.0059 10.5293C23.1387 10.4551 23.2793 10.418 23.4277 10.418C23.5723 10.418 23.709 10.4551 23.8379 10.5293C23.9668 10.6035 24.0684 10.7051 24.1426 10.834C24.2207 10.9629 24.2598 11.1016 24.2598 11.25C24.2598 11.3984 24.2207 11.5371 24.1426 11.666C24.0684 11.7949 23.9668 11.8965 23.8379 11.9707C23.709 12.0449 23.5723 12.082 23.4277 12.082Z" fill="white"/>
</g>
<rect x="16.5" y="0.5" width="13.8571" height="15" rx="6.92857" stroke="white"/>
<defs>
<clipPath id="clip0_4954_22111">
<rect x="16" width="14.8571" height="16" rx="7.42857" fill="white"/>
</clipPath>
</defs>
</svg>
