<svg width="68" height="70" viewBox="0 0 68 70" fill="none" xmlns="http://www.w3.org/2000/svg">
<path fill-rule="evenodd" clip-rule="evenodd" d="M7.45146 45.6507C4.24546 42.4447 4.24546 37.2467 7.45146 34.0407L30.2455 11.2467C33.4515 8.04069 38.6495 8.04068 41.8555 11.2467C43.8476 13.2388 44.6019 16.0001 44.1182 18.5747L44.3261 18.3668L44.2854 18.5499C43.1786 23.5326 47.7042 27.9371 52.655 26.6957L52.4492 26.9052C55.1822 26.1837 58.2147 26.8943 60.3575 29.0371C63.5635 32.2431 63.5635 37.441 60.3575 40.647L37.5635 63.4411C34.3575 66.6471 29.1595 66.6471 25.9535 63.4411C23.985 61.4725 23.2251 58.7529 23.6741 56.2046L23.3339 56.551C24.4884 51.4229 19.8684 46.8599 14.7551 48.0778L14.5713 48.1216L14.7795 47.9135C12.2049 48.3971 9.44361 47.6428 7.45146 45.6507ZM27.3486 46.8408C28.0548 46.1347 29.1996 46.1347 29.9057 46.8408L35.8825 52.8176C36.5886 53.5237 36.5886 54.6685 35.8825 55.3746C35.1764 56.0808 34.0315 56.0808 33.3254 55.3746L27.3486 49.3979C26.6425 48.6917 26.6425 47.5469 27.3486 46.8408ZM18.2622 35.6105C17.5561 34.9044 16.4113 34.9044 15.7052 35.6105C14.999 36.3166 14.999 37.4614 15.7052 38.1676L21.5336 43.996C22.2397 44.7021 23.3845 44.7021 24.0906 43.996C24.7967 43.2898 24.7967 42.145 24.0906 41.4389L18.2622 35.6105Z" fill="#392EC5"/>
<path fill-rule="evenodd" clip-rule="evenodd" d="M6.03554 42.1753C2.7022 38.842 2.70221 33.4376 6.03555 30.1042L29.735 6.40479C33.0683 3.07145 38.4727 3.07145 41.8061 6.40479C43.8774 8.47607 44.6616 11.347 44.1587 14.0239L44.3749 13.8077L44.3326 13.9981C43.1817 19.1787 47.8871 23.7582 53.0346 22.4674L52.8206 22.6853C55.6621 21.9351 58.8152 22.6739 61.043 24.9018C64.3764 28.2352 64.3764 33.6396 61.043 36.9729L37.3436 60.6723C34.0103 64.0057 28.6058 64.0057 25.2725 60.6724C23.2258 58.6256 22.4358 55.798 22.9025 53.1485L22.5489 53.5086C23.7492 48.1768 18.9457 43.4325 13.6292 44.6989L13.4382 44.7444L13.6546 44.528C10.9778 45.0308 8.10683 44.2466 6.03554 42.1753ZM26.723 43.4127C27.4572 42.6786 28.6475 42.6786 29.3817 43.4127L35.5959 49.6269C36.33 50.3611 36.33 51.5514 35.5959 52.2855C34.8617 53.0197 33.6714 53.0197 32.9372 52.2855L26.723 46.0713C25.9889 45.3372 25.9889 44.1469 26.723 43.4127ZM17.2757 31.7363C16.5415 31.0022 15.3512 31.0022 14.6171 31.7363C13.8829 32.4705 13.8829 33.6608 14.6171 34.395L20.677 40.4549C21.4111 41.189 22.6014 41.189 23.3356 40.4549C24.0698 39.7207 24.0698 38.5304 23.3356 37.7962L17.2757 31.7363Z" fill="#7065FF"/>
</svg>
