<svg width="93" height="93" viewBox="0 0 93 93" fill="none" xmlns="http://www.w3.org/2000/svg">
<mask id="path-1-inside-1_436_3869" fill="white">
<path fill-rule="evenodd" clip-rule="evenodd" d="M9.03003 60.1077C4.31902 55.3967 4.31903 47.7586 9.03004 43.0476L42.5244 9.55319C47.2355 4.84219 54.8735 4.84218 59.5845 9.55319C63.4053 13.374 64.1273 19.1202 61.7504 23.6687C61.5805 29.2015 65.7749 33.8865 71.1678 34.4506C75.8844 31.0281 82.52 31.4427 86.7717 35.6943C91.4827 40.4053 91.4827 48.0434 86.7717 52.7544L53.2772 86.2488C48.5662 90.9598 40.9282 90.9598 36.2172 86.2488C32.719 82.7506 31.8184 77.6385 33.5154 73.3094C33.7946 67.0769 28.334 61.9699 22.0605 62.7733C17.7122 64.519 12.5528 63.6304 9.03003 60.1077Z"/>
</mask>
<path d="M9.03004 43.0476L8.32293 42.3405L9.03004 43.0476ZM42.5244 9.55319L43.2315 10.2603L42.5244 9.55319ZM61.7504 23.6687L60.8641 23.2056L60.7579 23.4088L60.7509 23.638L61.7504 23.6687ZM71.1678 34.4506L71.0638 35.4451L71.445 35.485L71.7551 35.2599L71.1678 34.4506ZM33.5154 73.3094L34.4464 73.6743L34.507 73.5199L34.5144 73.3541L33.5154 73.3094ZM22.0605 62.7733L21.9335 61.7814L21.8067 61.7977L21.688 61.8453L22.0605 62.7733ZM8.32293 42.3405C7.70693 42.9565 7.16473 43.6195 6.69677 44.3183L8.35855 45.4311C8.75439 44.84 9.21378 44.2781 9.73714 43.7547L8.32293 42.3405ZM4.74641 49.0296C4.41357 50.7108 4.41357 52.4445 4.7464 54.1257L6.70833 53.7373C6.42626 52.3125 6.42626 50.8427 6.70833 49.418L4.74641 49.0296ZM6.69676 58.837C7.16473 59.5358 7.70692 60.1988 8.32293 60.8148L9.73714 59.4006C9.21378 58.8772 8.75439 58.3152 8.35855 57.7241L6.69676 58.837ZM8.32293 60.8148C9.24609 61.7379 10.2745 62.495 11.3702 63.085L12.3183 61.324C11.3921 60.8253 10.5212 60.1846 9.73714 59.4006L8.32293 60.8148ZM18.7378 64.588C19.9965 64.4747 21.2426 64.1793 22.4331 63.7013L21.688 61.8453C20.6808 62.2496 19.6256 62.5 18.5584 62.5961L18.7378 64.588ZM22.1876 63.7652C23.5692 63.5883 24.9035 63.729 26.129 64.1231L26.7413 62.2191C25.2425 61.7372 23.6127 61.5664 21.9335 61.7814L22.1876 63.7652ZM31.8292 69.3688C32.3271 70.5627 32.5783 71.8818 32.5164 73.2646L34.5144 73.3541C34.5899 71.6694 34.2833 70.0573 33.6751 68.5989L31.8292 69.3688ZM32.5844 72.9444C32.1196 74.1301 31.8349 75.3694 31.7299 76.6203L33.7229 76.7876C33.8119 75.7271 34.0532 74.6775 34.4464 73.6743L32.5844 72.9444ZM33.2525 83.932C33.8406 85.019 34.5935 86.0393 35.5101 86.9559L36.9243 85.5417C36.1458 84.7632 35.5086 83.8991 35.0116 82.9803L33.2525 83.932ZM35.5101 86.9559C36.1261 87.5719 36.7891 88.1141 37.4878 88.5821L38.6007 86.9203C38.0096 86.5244 37.4477 86.0651 36.9243 85.5417L35.5101 86.9559ZM42.1992 90.5324C43.8804 90.8653 45.6141 90.8653 47.2953 90.5324L46.9069 88.5705C45.4821 88.8526 44.0123 88.8526 42.5876 88.5705L42.1992 90.5324ZM52.0066 88.5821C52.7054 88.1141 53.3684 87.5719 53.9844 86.9559L52.5701 85.5417C52.0468 86.0651 51.4848 86.5244 50.8937 86.9203L52.0066 88.5821ZM53.9844 86.9559L56.0778 84.8625L54.6635 83.4483L52.5701 85.5417L53.9844 86.9559ZM60.2646 80.6757L64.4514 76.4889L63.0371 75.0747L58.8503 79.2615L60.2646 80.6757ZM68.6382 72.3021L72.825 68.1153L71.4107 66.7011L67.2239 70.8879L68.6382 72.3021ZM77.0118 63.9285L81.1986 59.7417L79.7844 58.3275L75.5976 62.5143L77.0118 63.9285ZM85.3854 55.5549L87.4788 53.4615L86.0646 52.0473L83.9712 54.1407L85.3854 55.5549ZM87.4788 53.4615C88.0948 52.8455 88.637 52.1825 89.1049 51.4837L87.4431 50.3709C87.0473 50.9619 86.5879 51.5239 86.0646 52.0473L87.4788 53.4615ZM91.0553 46.7724C91.3881 45.0912 91.3881 43.3575 91.0553 41.6763L89.0934 42.0647C89.3754 43.4894 89.3754 44.9593 89.0934 46.384L91.0553 46.7724ZM89.1049 36.965C88.637 36.2662 88.0948 35.6032 87.4788 34.9872L86.0646 36.4014C86.5879 36.9248 87.0473 37.4868 87.4431 38.0779L89.1049 36.965ZM87.4788 34.9872C86.3573 33.8657 85.0808 32.9896 83.7172 32.3604L82.8793 34.1764C84.0317 34.7082 85.1124 35.4493 86.0646 36.4014L87.4788 34.9872ZM74.7129 31.6445C73.2548 32.0521 71.8531 32.7178 70.5805 33.6412L71.7551 35.2599C72.8317 34.4787 74.0173 33.9157 75.2515 33.5706L74.7129 31.6445ZM71.2719 33.456C70.0629 33.3295 68.9205 32.974 67.8875 32.4339L66.9608 34.2063C68.2117 34.8603 69.5973 35.2917 71.0638 35.4451L71.2719 33.456ZM63.3042 27.1915C62.9112 26.1029 62.7123 24.9249 62.7499 23.6994L60.7509 23.638C60.7053 25.121 60.9462 26.55 61.423 27.8707L63.3042 27.1915ZM62.6367 24.1319C63.2844 22.8925 63.7194 21.5716 63.9422 20.2232L61.969 19.8971C61.7802 21.0397 61.4118 22.1576 60.8641 23.2056L62.6367 24.1319ZM62.7117 12.1803C62.1022 10.9771 61.295 9.8495 60.2916 8.84609L58.8774 10.2603C59.7295 11.1124 60.4124 12.0672 60.9276 13.0842L62.7117 12.1803ZM60.2916 8.84609C59.6756 8.23009 59.0126 7.68789 58.3138 7.21993L57.201 8.88171C57.7921 9.27755 58.354 9.73694 58.8774 10.2603L60.2916 8.84609ZM53.6025 5.26956C51.9213 4.93673 50.1876 4.93673 48.5064 5.26957L48.8948 7.23148C50.3196 6.94942 51.7894 6.94942 53.2141 7.23149L53.6025 5.26956ZM43.7951 7.21993C43.0963 7.68789 42.4333 8.23009 41.8173 8.84609L43.2315 10.2603C43.7549 9.73694 44.3169 9.27755 44.908 8.88171L43.7951 7.21993ZM41.8173 8.84609L39.7239 10.9395L41.1381 12.3537L43.2315 10.2603L41.8173 8.84609ZM35.5371 15.1263L31.3503 19.3131L32.7645 20.7273L36.9513 16.5405L35.5371 15.1263ZM27.1635 23.4999L22.9767 27.6867L24.3909 29.1009L28.5777 24.9141L27.1635 23.4999ZM18.7899 31.8735L14.6031 36.0603L16.0173 37.4745L20.2041 33.2877L18.7899 31.8735ZM10.4163 40.2471L8.32293 42.3405L9.73714 43.7547L11.8305 41.6613L10.4163 40.2471ZM9.03004 43.0476L7.61582 41.6334L9.03004 43.0476ZM42.5244 9.55319L43.9387 10.9674L42.5244 9.55319ZM61.7504 23.6687L59.9779 22.7424L59.7654 23.1489L59.7514 23.6073L61.7504 23.6687ZM71.1678 34.4506L70.9598 36.4397L71.7221 36.5194L72.3424 36.0693L71.1678 34.4506ZM33.5154 73.3094L35.3774 74.0393L35.4985 73.7304L35.5134 73.3989L33.5154 73.3094ZM22.0605 62.7733L21.8065 60.7895L21.5528 60.822L21.3155 60.9173L22.0605 62.7733ZM7.61582 41.6334C6.9535 42.2957 6.3699 43.0092 5.86588 43.7618L9.18944 45.9876C9.54922 45.4503 9.96721 44.9389 10.4442 44.4618L7.61582 41.6334ZM3.76544 48.8354C3.40722 50.6448 3.40722 52.5105 3.76544 54.3199L7.68929 53.5431C7.43261 52.2466 7.43261 50.9087 7.68929 49.6122L3.76544 48.8354ZM5.86587 59.3934C6.36989 60.1461 6.9535 60.8596 7.61582 61.5219L10.4442 58.6935C9.9672 58.2164 9.54922 57.7049 9.18944 57.1677L5.86587 59.3934ZM7.61582 61.5219C8.60856 62.5146 9.71566 63.3299 10.8962 63.9655L12.7923 60.4434C11.951 59.9905 11.1587 59.4079 10.4442 58.6935L7.61582 61.5219ZM18.8274 65.584C20.182 65.4621 21.5235 65.1441 22.8056 64.6294L21.3155 60.9173C20.3999 61.2848 19.4401 61.5127 18.4688 61.6001L18.8274 65.584ZM22.3146 64.7571C23.5475 64.5992 24.734 64.7249 25.8229 65.0751L27.0474 61.2671C25.412 60.7412 23.6344 60.5554 21.8065 60.7895L22.3146 64.7571ZM30.9062 69.7537C31.349 70.8154 31.5726 71.9881 31.5174 73.2199L35.5134 73.3989C35.5956 71.5632 35.2614 69.8046 34.598 68.214L30.9062 69.7537ZM31.6533 72.5795C31.1528 73.8564 30.8464 75.1905 30.7334 76.5367L34.7194 76.8712C34.8004 75.9059 35.02 74.9512 35.3774 74.0393L31.6533 72.5795ZM32.373 84.4078C33.0066 85.5789 33.8173 86.6773 34.803 87.663L37.6314 84.8346C36.922 84.1252 36.3427 83.3391 35.8911 82.5045L32.373 84.4078ZM34.803 87.663C35.4653 88.3253 36.1788 88.9089 36.9314 89.413L39.1572 86.0894C38.6199 85.7296 38.1084 85.3116 37.6314 84.8346L34.803 87.663ZM42.0049 91.5134C43.8144 91.8716 45.6801 91.8716 47.4895 91.5134L46.7127 87.5896C45.4161 87.8462 44.0783 87.8462 42.7818 87.5896L42.0049 91.5134ZM52.563 89.413C53.3156 88.9089 54.0291 88.3253 54.6915 87.663L51.863 84.8346C51.386 85.3116 50.8745 85.7296 50.3373 86.0894L52.563 89.413ZM54.6915 87.663L56.7849 85.5696L53.9564 82.7412L51.863 84.8346L54.6915 87.663ZM60.9717 81.3828L65.1585 77.196L62.33 74.3676L58.1432 78.5544L60.9717 81.3828ZM69.3453 73.0092L73.5321 68.8224L70.7036 65.994L66.5168 70.1808L69.3453 73.0092ZM77.7189 64.6356L81.9057 60.4488L79.0772 57.6204L74.8904 61.8072L77.7189 64.6356ZM86.0925 56.262L88.1859 54.1686L85.3574 51.3402L83.264 53.4336L86.0925 56.262ZM88.1859 54.1686C88.8482 53.5063 89.4318 52.7928 89.9358 52.0402L86.6123 49.8144C86.2525 50.3517 85.8345 50.8631 85.3574 51.3402L88.1859 54.1686ZM92.0362 46.9666C92.3945 45.1572 92.3945 43.2915 92.0363 41.4821L88.1124 42.2589C88.3691 43.5554 88.3691 44.8933 88.1124 46.1898L92.0362 46.9666ZM89.9358 36.4086C89.4318 35.6559 88.8482 34.9424 88.1859 34.2801L85.3574 37.1085C85.8345 37.5856 86.2525 38.0971 86.6123 38.6343L89.9358 36.4086ZM88.1859 34.2801C86.9797 33.0739 85.6053 32.1303 84.1362 31.4524L82.4603 35.0844C83.5072 35.5675 84.49 36.2411 85.3574 37.1085L88.1859 34.2801ZM74.4437 30.6814C72.8736 31.1204 71.3638 31.8373 69.9932 32.8318L72.3424 36.0693C73.321 35.3592 74.3985 34.8474 75.5207 34.5337L74.4437 30.6814ZM71.3759 32.4614C70.2957 32.3484 69.275 32.0309 68.3509 31.5477L66.4975 35.0924C67.8572 35.8034 69.3645 36.2729 70.9598 36.4397L71.3759 32.4614ZM64.2448 26.8519C63.8936 25.8793 63.7158 24.8269 63.7495 23.7301L59.7514 23.6073C59.7018 25.2191 59.9638 26.7735 60.4825 28.2102L64.2448 26.8519ZM63.523 24.595C64.2206 23.26 64.689 21.8376 64.9289 20.3862L60.9824 19.7341C60.8106 20.7737 60.4755 21.7901 59.9779 22.7424L63.523 24.595ZM63.6038 11.7284C62.9471 10.4321 62.0778 9.21807 60.9987 8.13898L58.1703 10.9674C58.9467 11.7438 59.5675 12.6123 60.0355 13.5361L63.6038 11.7284ZM60.9987 8.13898C60.3364 7.47666 59.6229 6.89306 58.8703 6.38904L56.6445 9.7126C57.1818 10.0724 57.6933 10.4904 58.1703 10.9674L60.9987 8.13898ZM53.7967 4.28861C51.9873 3.93038 50.1216 3.93038 48.3122 4.28861L49.089 8.21244C50.3855 7.95577 51.7234 7.95577 53.0199 8.21244L53.7967 4.28861ZM43.2387 6.38904C42.486 6.89306 41.7725 7.47666 41.1102 8.13898L43.9387 10.9674C44.4157 10.4904 44.9272 10.0724 45.4644 9.7126L43.2387 6.38904ZM41.1102 8.13898L39.0168 10.2324L41.8453 13.0608L43.9387 10.9674L41.1102 8.13898ZM34.83 14.4192L30.6432 18.606L33.4717 21.4344L37.6585 17.2476L34.83 14.4192ZM26.4564 22.7928L22.2696 26.9796L25.0981 29.808L29.2849 25.6212L26.4564 22.7928ZM18.0828 31.1664L13.896 35.3532L16.7244 38.1816L20.9113 33.9948L18.0828 31.1664ZM9.70922 39.54L7.61582 41.6334L10.4442 44.4618L12.5376 42.3684L9.70922 39.54Z" fill="#64748B" mask="url(#path-1-inside-1_436_3869)"/>
</svg>
