<svg width="24" height="24" viewBox="0 0 24 24" fill="none" xmlns="http://www.w3.org/2000/svg">
<path d="M12 22C17.5 22 22 17.5 22 12C22 6.5 17.5 2 12 2C6.5 2 2 6.5 2 12C2 17.5 6.5 22 12 22Z" fill="#5A4EF6" fill-opacity="0.1"/>
<path fill-rule="evenodd" clip-rule="evenodd" d="M15.6254 9.96542C16.0648 9.52608 16.0648 8.81377 15.6254 8.37443C15.1861 7.93509 14.4738 7.93509 14.0344 8.37443L11.9999 10.4089L9.96542 8.37443C9.52608 7.93509 8.81377 7.93509 8.37443 8.37443C7.93509 8.81377 7.93509 9.52608 8.37443 9.96542L10.4089 11.9999L8.37443 14.0344C7.93509 14.4738 7.93509 15.1861 8.37443 15.6254C8.81377 16.0648 9.52608 16.0648 9.96542 15.6254L11.9999 13.5909L14.0344 15.6254C14.4738 16.0648 15.1861 16.0648 15.6254 15.6254C16.0648 15.1861 16.0648 14.4738 15.6254 14.0344L13.5909 11.9999L15.6254 9.96542Z" fill="#A3A3A8"/>
</svg>
