<svg width="20" height="20" viewBox="0 0 20 20" fill="none" xmlns="http://www.w3.org/2000/svg">
<path d="M1.92945 8.02998L1.7257 8.62083L1.92945 8.02998ZM1.92945 11.97L2.13319 12.5609L1.92945 11.97ZM18.0707 11.9701L17.867 12.5609L18.0707 11.9701ZM18.0707 8.02993L17.867 7.43906L18.0707 8.02993ZM5.00008 2.7085C2.81396 2.7085 1.04175 4.4807 1.04175 6.66683H2.29175C2.29175 5.17106 3.50431 3.9585 5.00008 3.9585V2.7085ZM15.0001 2.7085H5.00008V3.9585H15.0001V2.7085ZM18.9584 6.66683C18.9584 4.4807 17.1862 2.7085 15.0001 2.7085V3.9585C16.4959 3.9585 17.7084 5.17106 17.7084 6.66683H18.9584ZM18.9584 7.68584V6.66683H17.7084V7.68584H18.9584ZM17.2917 10C17.2917 9.36205 17.7017 8.81825 18.2744 8.6208L17.867 7.43906C16.8056 7.80497 16.0417 8.81246 16.0417 10H17.2917ZM18.2744 11.3792C17.7017 11.1818 17.2917 10.6379 17.2917 10H16.0417C16.0417 11.1875 16.8056 12.195 17.867 12.5609L18.2744 11.3792ZM18.9584 13.3335V12.3142H17.7084V13.3335H18.9584ZM15.0001 17.2918C17.1862 17.2918 18.9584 15.5196 18.9584 13.3335H17.7084C17.7084 14.8293 16.4959 16.0418 15.0001 16.0418V17.2918ZM5.00008 17.2918H15.0001V16.0418H5.00008V17.2918ZM1.04175 13.3335C1.04175 15.5196 2.81395 17.2918 5.00008 17.2918V16.0418C3.50431 16.0418 2.29175 14.8293 2.29175 13.3335H1.04175ZM1.04175 12.3141V13.3335H2.29175V12.3141H1.04175ZM2.13319 12.5609C3.19449 12.1949 3.95833 11.1875 3.95833 10H2.70833C2.70833 10.6379 2.29838 11.1817 1.7257 11.3792L2.13319 12.5609ZM3.95833 10C3.95833 8.81253 3.19449 7.80508 2.13319 7.43912L1.7257 8.62083C2.29838 8.81831 2.70833 9.36209 2.70833 10H3.95833ZM1.04175 6.66683V7.6859H2.29175V6.66683H1.04175ZM2.13319 7.43912C2.18886 7.45831 2.29175 7.53166 2.29175 7.6859H1.04175C1.04175 8.1572 1.37029 8.49828 1.7257 8.62083L2.13319 7.43912ZM2.29175 12.3141C2.29175 12.4683 2.18886 12.5417 2.13319 12.5609L1.7257 11.3792C1.3703 11.5017 1.04175 11.8428 1.04175 12.3141H2.29175ZM17.867 12.5609C17.8113 12.5418 17.7084 12.4684 17.7084 12.3142H18.9584C18.9584 11.8428 18.6298 11.5017 18.2744 11.3792L17.867 12.5609ZM17.7084 7.68584C17.7084 7.53159 17.8113 7.45825 17.867 7.43906L18.2744 8.6208C18.6298 8.49826 18.9584 8.15717 18.9584 7.68584H17.7084Z" fill="#A3A3A8"/>
<path d="M12.5 5.8335L12.5 3.3335" stroke="#A3A3A8" stroke-width="1.25" stroke-linecap="round" stroke-linejoin="round"/>
<path d="M12.5 11.25L12.5 8.75" stroke="#A3A3A8" stroke-width="1.25" stroke-linecap="round" stroke-linejoin="round"/>
<path d="M12.5 16.6665L12.5 14.1665" stroke="#A3A3A8" stroke-width="1.25" stroke-linecap="round" stroke-linejoin="round"/>
</svg>
