<svg width="24" height="24" viewBox="0 0 24 24" fill="none" xmlns="http://www.w3.org/2000/svg">
<path d="M2.5 11.3261C2.5 9.85707 3.1727 8.46892 4.32571 7.55865L9.02571 3.84812C10.7696 2.47137 13.2304 2.47138 14.9743 3.84813L19.6743 7.55865C20.8273 8.46893 21.5 9.85707 21.5 11.3261V16.7C21.5 19.351 19.351 21.5 16.7 21.5H16.2C15.5373 21.5 15 20.9627 15 20.3V17.9C15 16.5745 13.9255 15.5 12.6 15.5H11.4C10.0745 15.5 9 16.5745 9 17.9V20.3C9 20.9627 8.46274 21.5 7.8 21.5H7.3C4.64903 21.5 2.5 19.351 2.5 16.7L2.5 11.3261Z" fill="#7A6FFF" stroke="#7A6FFF" stroke-width="1.8"/>
</svg>
