<svg width="20" height="20" viewBox="0 0 20 20" fill="none" xmlns="http://www.w3.org/2000/svg">
<path fill-rule="evenodd" clip-rule="evenodd" d="M1.82895 12.7811C0.81885 11.771 0.81885 10.1333 1.82895 9.1232L9.0106 1.94155C10.0207 0.931445 11.6584 0.931445 12.6685 1.94155C13.2962 2.56923 13.5338 3.43926 13.3814 4.25045L13.447 4.1849L13.4341 4.24259C13.0854 5.81246 14.5113 7.2002 16.0711 6.80905L16.0058 6.87552C16.867 6.64802 17.8227 6.87188 18.4979 7.5471C19.508 8.5572 19.508 10.1949 18.4979 11.205L11.3162 18.3867C10.3061 19.3968 8.66842 19.3968 7.65832 18.3867C7.038 17.7663 6.79863 16.9093 6.9402 16.1063L6.83302 16.2155C7.19677 14.5998 5.74116 13.1621 4.13011 13.5459L4.07221 13.5597L4.13785 13.494C3.32667 13.6464 2.45664 13.4088 1.82895 12.7811ZM8.09785 13.156C8.32032 12.9335 8.68102 12.9335 8.90349 13.156L10.7866 15.0391C11.0091 15.2616 11.0091 15.6223 10.7866 15.8447C10.5641 16.0672 10.2034 16.0672 9.98094 15.8447L8.09785 13.9616C7.87538 13.7392 7.87538 13.3785 8.09785 13.156ZM5.2351 9.61799C5.01263 9.39552 4.65193 9.39552 4.42946 9.61799C4.20699 9.84046 4.20699 10.2012 4.42946 10.4236L6.26579 12.26C6.48826 12.4824 6.84896 12.4824 7.07144 12.26C7.29391 12.0375 7.29391 11.6768 7.07144 11.4543L5.2351 9.61799Z" fill="white"/>
</svg>
