<svg width="16" height="16" viewBox="0 0 16 16" fill="none" xmlns="http://www.w3.org/2000/svg">
<path d="M8.01339 1.93945C5.80673 1.93945 4.01339 3.73279 4.01339 5.93945V7.86612C4.01339 8.27279 3.84006 8.89279 3.63339 9.23945L2.86673 10.5128C2.39339 11.2995 2.72006 12.1728 3.58673 12.4661C6.46006 13.4261 9.56006 13.4261 12.4334 12.4661C13.2401 12.1995 13.5934 11.2461 13.1534 10.5128L12.3867 9.23945C12.1867 8.89279 12.0134 8.27279 12.0134 7.86612V5.93945C12.0134 3.73945 10.2134 1.93945 8.01339 1.93945Z" stroke="white" stroke-width="1.2" stroke-miterlimit="10" stroke-linecap="round"/>
<path d="M9.24694 2.13297C9.04027 2.07297 8.82694 2.0263 8.60694 1.99964C7.96694 1.91964 7.35361 1.9663 6.78027 2.13297C6.97361 1.63964 7.45361 1.29297 8.01361 1.29297C8.57361 1.29297 9.05361 1.63964 9.24694 2.13297Z" stroke="white" stroke-width="1.2" stroke-miterlimit="10" stroke-linecap="round" stroke-linejoin="round"/>
<path d="M10.0132 12.707C10.0132 13.807 9.11318 14.707 8.01318 14.707C7.46652 14.707 6.95985 14.4804 6.59985 14.1204C6.23985 13.7604 6.01318 13.2537 6.01318 12.707" stroke="white" stroke-width="1.2" stroke-miterlimit="10"/>
</svg>
