<svg width="20" height="20" viewBox="0 0 20 20" fill="none" xmlns="http://www.w3.org/2000/svg">
<path fill-rule="evenodd" clip-rule="evenodd" d="M1.66602 6.66536C1.66602 4.82441 3.1584 3.33203 4.99935 3.33203H14.9993C16.8403 3.33203 18.3327 4.82442 18.3327 6.66536V7.68457C18.3327 7.8431 18.2198 7.97697 18.07 8.02865C17.2529 8.31035 16.666 9.08598 16.666 9.9987C16.666 10.9114 17.2529 11.687 18.07 11.9687C18.2198 12.0204 18.3327 12.1543 18.3327 12.3128V13.332C18.3327 15.173 16.8403 16.6654 14.9993 16.6654H4.99935C3.1584 16.6654 1.66602 15.173 1.66602 13.332V12.3128C1.66602 12.1543 1.77885 12.0204 1.92873 11.9687C2.74575 11.687 3.33268 10.9114 3.33268 9.9987C3.33268 9.08598 2.74575 8.31035 1.92873 8.02865C1.77885 7.97697 1.66602 7.8431 1.66602 7.68457V6.66536Z" fill="#BBBBBE"/>
<path d="M1.92873 8.02865L2.09171 7.55596L1.92873 8.02865ZM1.92873 11.9687L2.09171 12.4414L1.92873 11.9687ZM18.07 11.9687L17.907 12.4414L18.07 11.9687ZM18.07 8.02865L17.907 7.55596L18.07 8.02865ZM4.99935 2.83203C2.88226 2.83203 1.16602 4.54827 1.16602 6.66536H2.16602C2.16602 5.10056 3.43454 3.83203 4.99935 3.83203V2.83203ZM14.9993 2.83203H4.99935V3.83203H14.9993V2.83203ZM18.8327 6.66536C18.8327 4.54827 17.1164 2.83203 14.9993 2.83203V3.83203C16.5642 3.83203 17.8327 5.10056 17.8327 6.66536H18.8327ZM18.8327 7.68457V6.66536H17.8327V7.68457H18.8327ZM17.166 9.9987C17.166 9.30581 17.6114 8.71565 18.2329 8.50134L17.907 7.55596C16.8945 7.90505 16.166 8.86615 16.166 9.9987H17.166ZM18.2329 11.4961C17.6114 11.2817 17.166 10.6916 17.166 9.9987H16.166C16.166 11.1312 16.8945 12.0923 17.907 12.4414L18.2329 11.4961ZM18.8327 13.332V12.3128H17.8327V13.332H18.8327ZM14.9993 17.1654C17.1164 17.1654 18.8327 15.4491 18.8327 13.332H17.8327C17.8327 14.8968 16.5642 16.1654 14.9993 16.1654V17.1654ZM4.99935 17.1654H14.9993V16.1654H4.99935V17.1654ZM1.16602 13.332C1.16602 15.4491 2.88226 17.1654 4.99935 17.1654V16.1654C3.43454 16.1654 2.16602 14.8968 2.16602 13.332H1.16602ZM1.16602 12.3128V13.332H2.16602V12.3128H1.16602ZM2.09171 12.4414C3.10419 12.0923 3.83268 11.1312 3.83268 9.9987H2.83268C2.83268 10.6916 2.38731 11.2817 1.76575 11.4961L2.09171 12.4414ZM3.83268 9.9987C3.83268 8.86615 3.10419 7.90505 2.09171 7.55596L1.76575 8.50134C2.38731 8.71565 2.83268 9.30581 2.83268 9.9987H3.83268ZM1.16602 6.66536V7.68457H2.16602V6.66536H1.16602ZM2.09171 7.55596C2.10445 7.56035 2.11983 7.56932 2.13432 7.58776C2.15006 7.6078 2.16602 7.64166 2.16602 7.68457H1.16602C1.16602 8.09333 1.45144 8.39297 1.76575 8.50134L2.09171 7.55596ZM2.16602 12.3128C2.16602 12.3557 2.15006 12.3896 2.13432 12.4096C2.11983 12.4281 2.10445 12.437 2.09171 12.4414L1.76575 11.4961C1.45144 11.6044 1.16602 11.9041 1.16602 12.3128H2.16602ZM17.907 12.4414C17.8942 12.437 17.8789 12.4281 17.8644 12.4096C17.8486 12.3896 17.8327 12.3557 17.8327 12.3128H18.8327C18.8327 11.9041 18.5473 11.6044 18.2329 11.4961L17.907 12.4414ZM17.8327 7.68457C17.8327 7.64166 17.8486 7.6078 17.8644 7.58776C17.8789 7.56932 17.8942 7.56035 17.907 7.55596L18.2329 8.50134C18.5473 8.39297 18.8327 8.09333 18.8327 7.68457H17.8327Z" fill="#BBBBBE"/>
<path d="M12.5 5.83203L12.5 3.33203" stroke="white" stroke-linecap="round" stroke-linejoin="round"/>
<path d="M12.5 11.25L12.5 8.75" stroke="white" stroke-linecap="round" stroke-linejoin="round"/>
<path d="M12.5 16.666L12.5 14.166" stroke="white" stroke-linecap="round" stroke-linejoin="round"/>
</svg>
