<svg width="32" height="32" viewBox="0 0 32 32" fill="none" xmlns="http://www.w3.org/2000/svg">
<path d="M28.1066 11.4404V20.5603C28.1066 22.0537 27.3066 23.4404 26.0133 24.2004L18.0933 28.7737C16.7999 29.5204 15.1999 29.5204 13.8932 28.7737L5.97323 24.2004C4.67989 23.4537 3.87988 22.067 3.87988 20.5603V11.4404C3.87988 9.94704 4.67989 8.56032 5.97323 7.80032L13.8932 3.22699C15.1866 2.48033 16.7866 2.48033 18.0933 3.22699L26.0133 7.80032C27.3066 8.56032 28.1066 9.93371 28.1066 11.4404Z" fill="#877EFF" stroke="#877EFF" stroke-width="1.8" stroke-linecap="round" stroke-linejoin="round"/>
<path fill-rule="evenodd" clip-rule="evenodd" d="M16 20.0996C16.8284 20.0996 17.5 20.7712 17.5 21.5996V21.7329C17.5 22.5614 16.8284 23.2329 16 23.2329C15.1716 23.2329 14.5 22.5614 14.5 21.7329V21.5996C14.5 20.7712 15.1716 20.0996 16 20.0996Z" fill="#1E293B"/>
<path fill-rule="evenodd" clip-rule="evenodd" d="M16 8.83398C16.8284 8.83398 17.5 9.50556 17.5 10.334V17.334C17.5 18.1624 16.8284 18.834 16 18.834C15.1716 18.834 14.5 18.1624 14.5 17.334V10.334C14.5 9.50556 15.1716 8.83398 16 8.83398Z" fill="#1E293B"/>
</svg>
