<svg width="20" height="20" viewBox="0 0 20 20" fill="none" xmlns="http://www.w3.org/2000/svg">
<path d="M2.0835 9.43841C2.0835 8.21422 2.64408 7.05744 3.60492 6.29888L7.52158 3.20677C8.97482 2.05948 11.0255 2.05948 12.4787 3.20677L16.3954 6.29888C17.3562 7.05744 17.9168 8.21422 17.9168 9.43841V13.9167C17.9168 16.1258 16.126 17.9167 13.9168 17.9167H13.5002C12.9479 17.9167 12.5002 17.469 12.5002 16.9167V14.9167C12.5002 13.8121 11.6047 12.9167 10.5002 12.9167H9.50016C8.39559 12.9167 7.50016 13.8121 7.50016 14.9167V16.9167C7.50016 17.469 7.05245 17.9167 6.50016 17.9167H6.0835C3.87436 17.9167 2.0835 16.1258 2.0835 13.9167L2.0835 9.43841Z" fill="#A3A3A8" stroke="#A3A3A8" stroke-width="1.5"/>
</svg>
