<svg width="24" height="24" viewBox="0 0 24 24" fill="none" xmlns="http://www.w3.org/2000/svg">
<mask id="path-1-inside-1_1988_12841" fill="white">
<path fill-rule="evenodd" clip-rule="evenodd" d="M2.1354 14.9203C0.956168 13.7411 0.956167 11.8292 2.1354 10.6499L10.5196 2.26578C11.6988 1.08654 13.6107 1.08654 14.79 2.26578C15.7464 3.22219 15.9271 4.66057 15.3321 5.79912C15.2895 7.1843 16.3396 8.35724 17.6898 8.49824C18.8704 7.6418 20.5312 7.74566 21.5954 8.80981C22.7746 9.98904 22.7746 11.901 21.5954 13.0802L13.2112 21.4644C12.032 22.6436 10.1201 22.6436 8.94084 21.4644C8.06528 20.5888 7.83981 19.3093 8.26442 18.2257C8.33469 16.6651 6.96718 15.3862 5.3963 15.5879C4.30801 16.0244 3.01697 15.8019 2.1354 14.9203ZM9.96328 15.1009C10.1698 14.8944 10.5046 14.8944 10.7111 15.1009L13.1022 17.4921C13.3087 17.6986 13.3087 18.0334 13.1022 18.2399C12.8957 18.4464 12.5609 18.4464 12.3544 18.2399L9.96328 15.8487C9.75678 15.6422 9.75678 15.3074 9.96328 15.1009ZM6.40402 10.9785C6.20202 10.7765 5.87451 10.7765 5.67251 10.9785C5.4705 11.1805 5.4705 11.508 5.67251 11.71L8.02535 14.0629C8.22735 14.2649 8.55486 14.2649 8.75686 14.0629C8.95886 13.8609 8.95886 13.5334 8.75686 13.3314L6.40402 10.9785Z"/>
</mask>
<path fill-rule="evenodd" clip-rule="evenodd" d="M2.1354 14.9203C0.956168 13.7411 0.956167 11.8292 2.1354 10.6499L10.5196 2.26578C11.6988 1.08654 13.6107 1.08654 14.79 2.26578C15.7464 3.22219 15.9271 4.66057 15.3321 5.79912C15.2895 7.1843 16.3396 8.35724 17.6898 8.49824C18.8704 7.6418 20.5312 7.74566 21.5954 8.80981C22.7746 9.98904 22.7746 11.901 21.5954 13.0802L13.2112 21.4644C12.032 22.6436 10.1201 22.6436 8.94084 21.4644C8.06528 20.5888 7.83981 19.3093 8.26442 18.2257C8.33469 16.6651 6.96718 15.3862 5.3963 15.5879C4.30801 16.0244 3.01697 15.8019 2.1354 14.9203ZM9.96328 15.1009C10.1698 14.8944 10.5046 14.8944 10.7111 15.1009L13.1022 17.4921C13.3087 17.6986 13.3087 18.0334 13.1022 18.2399C12.8957 18.4464 12.5609 18.4464 12.3544 18.2399L9.96328 15.8487C9.75678 15.6422 9.75678 15.3074 9.96328 15.1009ZM6.40402 10.9785C6.20202 10.7765 5.87451 10.7765 5.67251 10.9785C5.4705 11.1805 5.4705 11.508 5.67251 11.71L8.02535 14.0629C8.22735 14.2649 8.55486 14.2649 8.75686 14.0629C8.95886 13.8609 8.95886 13.5334 8.75686 13.3314L6.40402 10.9785Z" fill="#A3A3A8"/>
<path d="M2.1354 10.6499L1.4283 9.94283H1.4283L2.1354 10.6499ZM2.1354 14.9203L2.84251 14.2132H2.84251L2.1354 14.9203ZM10.5196 2.26578L9.81246 1.55867V1.55867L10.5196 2.26578ZM14.79 2.26578L15.4971 1.55867V1.55867L14.79 2.26578ZM15.3321 5.79912L14.4458 5.33597L14.3396 5.53917L14.3326 5.76833L15.3321 5.79912ZM17.6898 8.49824L17.586 9.49283L17.967 9.53262L18.277 9.30769L17.6898 8.49824ZM21.5954 8.80981L22.3025 8.1027V8.1027L21.5954 8.80981ZM21.5954 13.0802L22.3025 13.7873L21.5954 13.0802ZM13.2112 21.4644L13.9183 22.1715L13.2112 21.4644ZM8.94084 21.4644L9.64795 20.7573L8.94084 21.4644ZM8.26442 18.2257L9.19549 18.5906L9.25595 18.4363L9.26341 18.2707L8.26442 18.2257ZM5.3963 15.5879L5.26896 14.5961L5.14243 14.6123L5.02403 14.6598L5.3963 15.5879ZM10.7111 15.1009L11.4182 14.3938L10.7111 15.1009ZM13.1022 17.4921L13.8093 16.785L13.8093 16.785L13.1022 17.4921ZM13.1022 18.2399L12.3951 17.5328L12.3951 17.5328L13.1022 18.2399ZM12.3544 18.2399L13.0615 17.5328L13.0615 17.5328L12.3544 18.2399ZM9.96328 15.8487L10.6704 15.1416L9.96328 15.8487ZM5.67251 10.9785L6.37961 11.6856L6.37961 11.6856L5.67251 10.9785ZM6.40402 10.9785L5.69691 11.6856L5.69691 11.6856L6.40402 10.9785ZM5.67251 11.71L6.37961 11.0029L5.67251 11.71ZM8.02535 14.0629L7.31824 14.77L8.02535 14.0629ZM8.75686 14.0629L9.46397 14.77L9.46397 14.77L8.75686 14.0629ZM8.75686 13.3314L9.46397 12.6243L8.75686 13.3314ZM1.4283 9.94283C-0.141464 11.5126 -0.141464 14.0577 1.4283 15.6274L2.84251 14.2132C2.0538 13.4245 2.0538 12.1458 2.84251 11.357L1.4283 9.94283ZM9.81246 1.55867L1.4283 9.94283L2.84251 11.357L11.2267 2.97288L9.81246 1.55867ZM15.4971 1.55867C13.9273 -0.0110914 11.3822 -0.0110941 9.81246 1.55867L11.2267 2.97288C12.0154 2.18417 13.2941 2.18417 14.0829 2.97288L15.4971 1.55867ZM16.2184 6.26227C17.01 4.7475 16.7713 2.83289 15.4971 1.55867L14.0829 2.97288C14.7215 3.6115 14.8442 4.57363 14.4458 5.33597L16.2184 6.26227ZM17.7937 7.50365C16.9578 7.41635 16.3053 6.68463 16.3316 5.8299L14.3326 5.76833C14.2736 7.68397 15.7215 9.29812 17.586 9.49283L17.7937 7.50365ZM22.3025 8.1027C20.8853 6.68547 18.6749 6.54824 17.1027 7.68879L18.277 9.30769C19.066 8.73537 20.1772 8.80585 20.8883 9.51691L22.3025 8.1027ZM22.3025 13.7873C23.8723 12.2175 23.8723 9.67246 22.3025 8.1027L20.8883 9.51691C21.677 10.3056 21.677 11.5844 20.8883 12.3731L22.3025 13.7873ZM13.9183 22.1715L22.3025 13.7873L20.8883 12.3731L12.5041 20.7573L13.9183 22.1715ZM8.23373 22.1715C9.80349 23.7412 12.3486 23.7412 13.9183 22.1715L12.5041 20.7573C11.7154 21.546 10.4367 21.546 9.64795 20.7573L8.23373 22.1715ZM7.33335 17.8609C6.76895 19.3012 7.06712 21.0049 8.23373 22.1715L9.64795 20.7573C9.06344 20.1728 8.91066 19.3175 9.19549 18.5906L7.33335 17.8609ZM5.52364 16.5798C6.47398 16.4578 7.30798 17.2359 7.26543 18.1808L9.26341 18.2707C9.36141 16.0944 7.46038 14.3147 5.26896 14.5961L5.52364 16.5798ZM1.4283 15.6274C2.60291 16.8021 4.32191 17.0963 5.76856 16.5161L5.02403 14.6598C4.29411 14.9526 3.43103 14.8017 2.84251 14.2132L1.4283 15.6274ZM11.4182 14.3938C10.8212 13.7968 9.8532 13.7968 9.25618 14.3938L10.6704 15.808C10.4864 15.9921 10.188 15.9921 10.004 15.808L11.4182 14.3938ZM13.8093 16.785L11.4182 14.3938L10.004 15.808L12.3951 18.1992L13.8093 16.785ZM13.8093 18.947C14.4063 18.35 14.4063 17.382 13.8093 16.785L12.3951 18.1992C12.2111 18.0151 12.2111 17.7168 12.3951 17.5328L13.8093 18.947ZM11.6473 18.947C12.2443 19.544 13.2123 19.544 13.8093 18.947L12.3951 17.5328C12.5791 17.3487 12.8775 17.3487 13.0615 17.5328L11.6473 18.947ZM9.25617 16.5558L11.6473 18.947L13.0615 17.5328L10.6704 15.1416L9.25617 16.5558ZM9.25618 14.3938C8.65915 14.9908 8.65915 15.9588 9.25617 16.5558L10.6704 15.1416C10.8544 15.3257 10.8544 15.624 10.6704 15.808L9.25618 14.3938ZM6.37961 11.6856C6.19109 11.8742 5.88543 11.8742 5.69691 11.6856L7.11113 10.2714C6.5186 9.67889 5.55792 9.67889 4.9654 10.2714L6.37961 11.6856ZM6.37961 11.0029C6.56813 11.1915 6.56813 11.4971 6.37961 11.6856L4.9654 10.2714C4.37287 10.8639 4.37287 11.8246 4.9654 12.4171L6.37961 11.0029ZM8.73245 13.3558L6.37961 11.0029L4.9654 12.4171L7.31824 14.77L8.73245 13.3558ZM8.04976 13.3558C8.23828 13.1673 8.54393 13.1673 8.73245 13.3558L7.31824 14.77C7.91077 15.3625 8.87144 15.3625 9.46397 14.77L8.04976 13.3558ZM8.04975 14.0385C7.86123 13.85 7.86123 13.5443 8.04975 13.3558L9.46397 14.77C10.0565 14.1775 10.0565 13.2168 9.46397 12.6243L8.04975 14.0385ZM5.69691 11.6856L8.04975 14.0385L9.46397 12.6243L7.11113 10.2714L5.69691 11.6856Z" fill="#A3A3A8" mask="url(#path-1-inside-1_1988_12841)"/>
</svg>
