<svg width="32" height="32" viewBox="0 0 32 32" fill="none" xmlns="http://www.w3.org/2000/svg">
<path d="M8.43259 8.05665C7.85116 7.47523 8.18053 6.47948 8.99399 6.36001L24.993 4.01427C26.3181 3.82016 27.4562 4.95822 27.2621 6.28336L24.9163 22.2823C24.7968 23.0957 23.8011 23.4252 23.2197 22.8437L20.5839 20.208C20.1934 19.8175 19.5602 19.8175 19.1697 20.208L12.6207 26.757C11.2577 28.1199 9.04767 28.1199 7.68474 26.757L4.5214 23.5937C3.15855 22.2307 3.1585 20.0206 4.5214 18.6577L11.0704 12.1087C11.461 11.7182 11.461 11.085 11.0704 10.6945L8.43259 8.05665Z" fill="#7A6FFF"/>
</svg>
