<svg width="16" height="16" viewBox="0 0 16 16" fill="none" xmlns="http://www.w3.org/2000/svg">
<path d="M8.00016 14.6668C11.6668 14.6668 14.6668 11.6668 14.6668 8.00016C14.6668 4.3335 11.6668 1.3335 8.00016 1.3335C4.3335 1.3335 1.3335 4.3335 1.3335 8.00016C1.3335 11.6668 4.3335 14.6668 8.00016 14.6668Z" stroke="white" stroke-opacity="0.4" stroke-width="1.5" stroke-linecap="round" stroke-linejoin="round"/>
<path fill-rule="evenodd" clip-rule="evenodd" d="M10.4169 6.64361C10.7098 6.35072 10.7098 5.87584 10.4169 5.58295C10.1241 5.29006 9.64918 5.29006 9.35628 5.58295L7.99995 6.93929L6.64361 5.58295C6.35072 5.29006 5.87584 5.29006 5.58295 5.58295C5.29006 5.87584 5.29006 6.35072 5.58295 6.64361L6.93929 7.99995L5.58295 9.35628C5.29006 9.64918 5.29006 10.1241 5.58295 10.4169C5.87584 10.7098 6.35072 10.7098 6.64361 10.4169L7.99995 9.06061L9.35628 10.4169C9.64918 10.7098 10.1241 10.7098 10.4169 10.4169C10.7098 10.1241 10.7098 9.64918 10.4169 9.35628L9.06061 7.99995L10.4169 6.64361Z" fill="white" fill-opacity="0.4"/>
</svg>
