<svg width="18" height="19" viewBox="0 0 18 19" fill="none" xmlns="http://www.w3.org/2000/svg">
<path fill-rule="evenodd" clip-rule="evenodd" d="M13.4993 4.31905C13.4217 4.13255 13.317 3.90943 13.1657 3.64826C13.1508 3.62257 13.14 3.60283 13.1305 3.58539C13.0999 3.52933 13.0823 3.49715 12.9834 3.36809C12.3312 2.39608 11.391 1.63232 10.2883 1.20055C9.87186 0.48132 9.09413 0 8.20536 0C7.31796 0 6.54126 0.479832 6.12439 1.19721C3.97957 2.0317 2.45509 4.11768 2.45509 6.55811V8.96644C2.45509 9.13024 2.41735 9.3801 2.34179 9.65229C2.26652 9.92344 2.17033 10.157 2.08662 10.2978L2.08588 10.2991L1.12912 11.8881C0.727248 12.556 0.640213 13.3119 0.890301 13.9873C0.987414 14.2496 1.13101 14.488 1.3134 14.696L1.30957 14.6998C1.3419 14.7324 1.37223 14.7625 1.40082 14.7904C1.46279 14.8537 1.52859 14.9138 1.59796 14.9706C1.65958 15.0223 1.71209 15.061 1.76189 15.0937C1.90048 15.1892 2.05076 15.2724 2.21112 15.3421C2.26798 15.3674 2.33378 15.3933 2.40398 15.4187L0.21967 17.603C-0.0732233 17.8959 -0.0732233 18.3707 0.21967 18.6636C0.512563 18.9565 0.987437 18.9565 1.28033 18.6636L4.05632 15.8876C4.41756 15.9722 4.78069 16.0456 5.14523 16.1077C5.30945 16.566 5.57302 16.9784 5.9082 17.3136C6.49267 17.8981 7.31438 18.2666 8.2052 18.2666C9.61407 18.2666 10.8167 17.3619 11.2664 16.106C12.1779 15.9501 13.0806 15.7241 13.9666 15.4282C15.4332 14.9426 16.0688 13.2148 15.2732 11.8889L14.3183 10.303C14.2361 10.1588 14.1419 9.92411 14.068 9.65454C13.9929 9.38079 13.9551 9.13047 13.9551 8.96644V6.55811C13.9551 6.37481 13.9464 6.19347 13.9295 6.01449L17.2803 2.66363C17.5732 2.37074 17.5732 1.89586 17.2803 1.60297C16.9874 1.31008 16.5126 1.31008 16.2197 1.60297L13.5006 4.32209C13.5001 4.32108 13.4997 4.32007 13.4993 4.31905ZM13.5005 4.32211C13.5001 4.32109 13.4997 4.32007 13.4993 4.31905C13.3569 3.98481 13.1838 3.66663 12.9834 3.36809C12.9488 3.32286 12.9041 3.26573 12.8455 3.19151L1.3134 14.696C1.34162 14.7282 1.37077 14.7596 1.40082 14.7904C1.47744 14.8649 1.54152 14.9232 1.59796 14.9706C1.65058 15.0136 1.70526 15.0547 1.76189 15.0937C1.82513 15.1352 1.884 15.1671 1.95155 15.2038C1.9967 15.2282 2.04573 15.2548 2.10255 15.2878C2.1328 15.3053 2.16958 15.3235 2.21112 15.3421C2.27418 15.3694 2.3388 15.3947 2.40488 15.4178L13.5005 4.32211Z" fill="#7A6FFF"/>
</svg>
