<svg width="22" height="18" viewBox="0 0 22 18" fill="none" xmlns="http://www.w3.org/2000/svg">
<path fill-rule="evenodd" clip-rule="evenodd" d="M1 5C1 2.79086 2.79086 1 5 1H17C19.2091 1 21 2.79086 21 5V6.22305C21 6.41329 20.8646 6.57393 20.6847 6.63594C19.7043 6.97398 19 7.90474 19 9C19 10.0953 19.7043 11.026 20.6847 11.3641C20.8646 11.4261 21 11.5867 21 11.777V13C21 15.2091 19.2091 17 17 17H5C2.79086 17 1 15.2091 1 13V11.777C1 11.5867 1.1354 11.4261 1.31525 11.3641C2.29568 11.026 3 10.0953 3 9C3 7.90474 2.29568 6.97398 1.31525 6.63594C1.1354 6.57393 1 6.41329 1 6.22305V5Z" fill="#5F5F67"/>
<path d="M1.31525 6.63594L1.07079 7.34498L1.31525 6.63594ZM1.31525 11.3641L1.07079 10.655L1.31525 11.3641ZM20.6847 11.3641L20.9292 10.655L20.6847 11.3641ZM20.6847 6.63594L20.4403 5.92691L20.6847 6.63594ZM5 0.25C2.37665 0.25 0.25 2.37665 0.25 5H1.75C1.75 3.20507 3.20507 1.75 5 1.75V0.25ZM17 0.25H5V1.75H17V0.25ZM21.75 5C21.75 2.37665 19.6234 0.25 17 0.25V1.75C18.7949 1.75 20.25 3.20507 20.25 5H21.75ZM21.75 6.22305V5H20.25V6.22305H21.75ZM19.75 9C19.75 8.23448 20.242 7.58193 20.9292 7.34498L20.4403 5.92691C19.1667 6.36603 18.25 7.575 18.25 9H19.75ZM20.9292 10.655C20.242 10.4181 19.75 9.76552 19.75 9H18.25C18.25 10.425 19.1667 11.634 20.4403 12.0731L20.9292 10.655ZM21.75 13V11.777H20.25V13H21.75ZM17 17.75C19.6234 17.75 21.75 15.6234 21.75 13H20.25C20.25 14.7949 18.7949 16.25 17 16.25V17.75ZM5 17.75H17V16.25H5V17.75ZM0.25 13C0.25 15.6234 2.37665 17.75 5 17.75V16.25C3.20507 16.25 1.75 14.7949 1.75 13H0.25ZM0.25 11.777V13H1.75V11.777H0.25ZM1.55972 12.0731C2.83334 11.634 3.75 10.425 3.75 9H2.25C2.25 9.76552 1.75802 10.4181 1.07079 10.655L1.55972 12.0731ZM3.75 9C3.75 7.575 2.83334 6.36603 1.55972 5.92691L1.07079 7.34498C1.75802 7.58193 2.25 8.23448 2.25 9H3.75ZM0.25 5V6.22305H1.75V5H0.25ZM1.55972 5.92691C1.62653 5.94994 1.75 6.03795 1.75 6.22305H0.25C0.25 6.78862 0.644282 7.19793 1.07079 7.34498L1.55972 5.92691ZM1.75 11.777C1.75 11.962 1.62653 12.0501 1.55972 12.0731L1.07079 10.655C0.644281 10.8021 0.25 11.2114 0.25 11.777H1.75ZM20.4403 12.0731C20.3735 12.0501 20.25 11.962 20.25 11.777H21.75C21.75 11.2114 21.3557 10.8021 20.9292 10.655L20.4403 12.0731ZM20.25 6.22305C20.25 6.03795 20.3735 5.94994 20.4403 5.92691L20.9292 7.34498C21.3557 7.19793 21.75 6.78862 21.75 6.22305H20.25Z" fill="#5F5F67"/>
<path d="M14 4L14 1" stroke="white" stroke-width="1.5" stroke-linecap="round" stroke-linejoin="round"/>
<path d="M14 10.5L14 7.5" stroke="white" stroke-width="1.5" stroke-linecap="round" stroke-linejoin="round"/>
<path d="M14 17L14 14" stroke="white" stroke-width="1.5" stroke-linecap="round" stroke-linejoin="round"/>
</svg>
