<svg width="100" height="100" viewBox="0 0 100 100" fill="none" xmlns="http://www.w3.org/2000/svg">
<path fill-rule="evenodd" clip-rule="evenodd" d="M91.5933 50.2291L70.9112 70.9112L50.2291 91.5933C48.0061 93.8163 44.9723 95.0291 41.8518 94.9422C35.9352 94.7775 31.2165 90.0588 31.0518 84.1422L30.9534 80.6095C30.9284 79.7101 31.0605 78.8111 31.3439 77.953C33.3333 71.9292 27.6841 66.28 21.6603 68.2694C20.8022 68.5528 19.9033 68.685 19.0038 68.6599L15.4711 68.5616C9.55451 68.3968 4.83588 63.6782 4.67114 57.7616C4.58426 54.641 5.79705 51.6072 8.02008 49.3842L28.7021 28.7022L49.3842 8.02009C51.6072 5.79707 54.641 4.58427 57.7615 4.67116C63.6782 4.8359 68.3968 9.55452 68.5615 15.4712L68.6599 19.0038C68.6849 19.9033 68.5528 20.8023 68.2694 21.6604C66.28 27.6841 71.9292 33.3334 77.953 31.344C78.8111 31.0606 79.7101 30.9284 80.6095 30.9535L84.1422 31.0518C90.0588 31.2166 94.7774 35.9352 94.9422 41.8518C95.0291 44.9723 93.8163 48.0061 91.5933 50.2291ZM63.0506 43.0208C64.3907 41.7455 64.3907 39.6779 63.0506 38.4027C61.7105 37.1274 59.5377 37.1274 58.1976 38.4027L43.3233 52.5571L37.8858 47.3827C36.5457 46.1075 34.373 46.1075 33.0329 47.3827C31.6928 48.658 31.6928 50.7256 33.0329 52.0008L40.8969 59.4842C41.5404 60.0966 42.4132 60.4406 43.3233 60.4406C44.2335 60.4406 45.1063 60.0966 45.7498 59.4842L63.0506 43.0208Z" fill="white"/>
</svg>
